<svg xmlns="http://www.w3.org/2000/svg" xmlns:xlink="http://www.w3.org/1999/xlink" width="500" zoomAndPan="magnify" viewBox="0 0 375 374.999991" height="500" preserveAspectRatio="xMidYMid meet" version="1.0"><defs><filter x="0%" y="0%" width="100%" height="100%" id="ed4e7b4cd2"><feColorMatrix values="0 0 0 0 1 0 0 0 0 1 0 0 0 0 1 0 0 0 1 0" color-interpolation-filters="sRGB"/></filter><g/><clipPath id="14c1215b4b"><path d="M 60.273438 33.34375 L 330.800781 33.34375 L 330.800781 270.390625 L 60.273438 270.390625 Z M 60.273438 33.34375 " clip-rule="nonzero"/></clipPath><clipPath id="8d397da1bf"><path d="M 60.273438 103.277344 C 60.273438 178.566406 195.390625 270.390625 195.390625 270.390625 C 195.390625 270.390625 329.914062 177.917969 330.507812 103.277344 C 330.507812 64.742188 299.105469 33.34375 260.570312 33.34375 C 230.953125 33.34375 205.441406 52.3125 195.390625 78.363281 C 185.335938 52.3125 159.828125 33.34375 130.210938 33.34375 C 91.671875 33.34375 60.273438 64.742188 60.273438 103.277344 " clip-rule="nonzero"/></clipPath><mask id="40fc34e419"><g filter="url(#ed4e7b4cd2)"><rect x="-37.5" width="450" fill="#000000" y="-37.499999" height="449.999989" fill-opacity="0.82"/></g></mask><clipPath id="8753007b92"><path d="M 0.855469 0.738281 L 216 0.738281 L 216 189.394531 L 0.855469 189.394531 Z M 0.855469 0.738281 " clip-rule="nonzero"/></clipPath><clipPath id="897f1972d0"><path d="M 0.855469 56.394531 C 0.855469 116.3125 108.390625 189.394531 108.390625 189.394531 C 108.390625 189.394531 215.449219 115.796875 215.921875 56.394531 C 215.921875 25.726562 190.933594 0.738281 160.261719 0.738281 C 136.691406 0.738281 116.390625 15.835938 108.390625 36.566406 C 100.390625 15.835938 80.085938 0.738281 56.515625 0.738281 C 25.847656 0.738281 0.855469 25.726562 0.855469 56.394531 " clip-rule="nonzero"/></clipPath><clipPath id="8146ce71e1"><rect x="0" width="217" y="0" height="190"/></clipPath><clipPath id="c5b3a41e4b"><path d="M 48 109 L 225.035156 109 L 225.035156 297 L 48 297 Z M 48 109 " clip-rule="nonzero"/></clipPath></defs><g clip-path="url(#14c1215b4b)"><g clip-path="url(#8d397da1bf)"><path fill="#64ebb6" d="M 60.273438 33.34375 L 330.261719 33.34375 L 330.261719 270.394531 L 60.273438 270.394531 Z M 60.273438 33.34375 " fill-opacity="1" fill-rule="nonzero"/></g></g><g mask="url(#40fc34e419)"><g transform="matrix(1, 0, 0, 1, 87, 81)"><g clip-path="url(#8146ce71e1)"><g clip-path="url(#8753007b92)"><g clip-path="url(#897f1972d0)"><path fill="#1b9ce4" d="M 0.855469 0.738281 L 215.726562 0.738281 L 215.726562 189.394531 L 0.855469 189.394531 Z M 0.855469 0.738281 " fill-opacity="1" fill-rule="nonzero"/></g></g></g></g></g><g clip-path="url(#c5b3a41e4b)"><path fill="#ffffff" d="M 168.261719 285.070312 L 168.261719 241.496094 C 168.261719 235.699219 172.960938 231 178.757812 231 L 214.542969 231 C 220.339844 231 225.039062 226.300781 225.039062 220.5 L 225.039062 177.789062 C 225.039062 171.992188 220.339844 167.289062 214.542969 167.289062 C 214.542969 167.289062 210.566406 167.289062 205.265625 167.289062 C 199.964844 167.289062 193.335938 167.289062 188.035156 167.289062 C 182.375 166.363281 174.417969 166.363281 171.765625 163.710938 C 161.160156 147.800781 182.375 108.019531 149.457031 109.390625 C 144.707031 109.371094 138.773438 109.359375 134.027344 109.359375 C 129.28125 109.359375 125.722656 109.359375 125.722656 109.359375 C 119.921875 109.359375 115.222656 114.058594 115.222656 119.859375 L 115.222656 156.792969 C 115.222656 159.691406 114.046875 162.316406 112.148438 164.214844 C 110.246094 166.113281 107.625 167.296875 104.726562 167.347656 C 86.90625 174.316406 44.476562 158.40625 49.230469 188.953125 C 49.230469 195.1875 49.230469 203.101562 49.230469 209.425781 C 49.230469 215.753906 49.230469 220.5 49.230469 220.5 C 49.230469 226.300781 53.929688 231 59.726562 231 C 59.726562 231 79.726562 231 93.058594 231 C 96.390625 231 99.308594 231 101.390625 231 C 105.46875 230.007812 110.773438 232.660156 113.425781 235.3125 C 124.035156 256.527344 102.816406 304.257812 141.742188 295.566406 C 144.410156 295.566406 147.082031 295.566406 149.457031 295.566406 C 154.203125 295.566406 157.761719 295.566406 157.761719 295.566406 C 163.558594 295.570312 168.261719 290.867188 168.261719 285.070312 Z M 168.261719 285.070312 " fill-opacity="1" fill-rule="nonzero"/></g><path fill="#ffffff" d="M 215.332031 211.539062 C 216.183594 214.140625 215.769531 217.054688 214.117188 219.261719 C 212.40625 221.539062 209.609375 222.597656 206.917969 223.1875 C 203.6875 223.894531 200.328125 224.117188 197.035156 224.367188 C 193.347656 224.644531 189.652344 224.800781 185.957031 224.832031 C 181.746094 224.863281 177.535156 224.734375 173.335938 224.449219 C 171.664062 224.335938 171.671875 226.941406 173.335938 227.050781 C 181.339844 227.59375 189.378906 227.566406 197.378906 226.941406 C 200.957031 226.664062 204.636719 226.421875 208.140625 225.574219 C 211.199219 224.835938 214.175781 223.425781 216.128906 220.882812 C 218.292969 218.070312 218.945312 214.21875 217.84375 210.847656 C 217.324219 209.261719 214.808594 209.941406 215.332031 211.539062 Z M 215.332031 211.539062 " fill-opacity="1" fill-rule="nonzero"/><path fill="#ffffff" d="M 199.710938 217.480469 C 192.953125 218.476562 186.09375 218.738281 179.269531 218.320312 C 177.597656 218.21875 177.605469 220.820312 179.269531 220.921875 C 186.335938 221.355469 193.402344 221.019531 200.402344 219.992188 C 201.097656 219.886719 201.488281 219.007812 201.3125 218.390625 C 201.105469 217.644531 200.414062 217.378906 199.710938 217.480469 Z M 199.710938 217.480469 " fill-opacity="1" fill-rule="nonzero"/><path fill="#ffffff" d="M 120.777344 141.175781 C 119.457031 148.660156 121.46875 156.335938 119.878906 163.773438 C 119.242188 166.757812 118.050781 169.707031 115.839844 171.875 C 113.441406 174.230469 110.121094 175.191406 106.871094 175.652344 C 102.46875 176.273438 97.929688 176.292969 93.5 176.109375 C 91.824219 176.042969 91.828125 178.644531 93.5 178.714844 C 97.730469 178.886719 102.011719 178.832031 106.222656 178.335938 C 109.820312 177.914062 113.460938 177.066406 116.390625 174.820312 C 122.042969 170.492188 123.175781 162.855469 123.074219 156.1875 C 123.003906 151.421875 122.453125 146.597656 123.285156 141.867188 C 123.574219 140.230469 121.066406 139.527344 120.777344 141.175781 Z M 120.777344 141.175781 " fill-opacity="1" fill-rule="nonzero"/><path fill="#ffffff" d="M 124.792969 170.535156 C 125.703125 175.664062 121.085938 179.660156 116.664062 181.035156 C 111.054688 182.777344 105.09375 181.851562 99.332031 182.191406 C 97.667969 182.285156 97.65625 184.890625 99.332031 184.792969 C 105.78125 184.414062 112.570312 185.53125 118.734375 183.058594 C 124.054688 180.921875 128.371094 175.867188 127.300781 169.84375 C 127.007812 168.195312 124.5 168.894531 124.792969 170.535156 Z M 124.792969 170.535156 " fill-opacity="1" fill-rule="nonzero"/><g fill="#183e9f" fill-opacity="1"><g transform="translate(9.5877, 332.841338)"><g><path d="M 59.46875 -0.078125 L 49.25 -0.078125 L 49.25 -37.59375 C 49.25 -38.300781 49.375 -40.117188 49.625 -43.046875 C 49.476562 -42.640625 49.289062 -42.070312 49.0625 -41.34375 C 48.832031 -40.613281 48.617188 -39.945312 48.421875 -39.34375 C 48.222656 -38.738281 48.019531 -38.15625 47.8125 -37.59375 L 34.265625 0 L 28.671875 0 L 14.75 -37.59375 C 14.550781 -38.15625 14.347656 -38.738281 14.140625 -39.34375 C 13.941406 -39.945312 13.726562 -40.613281 13.5 -41.34375 C 13.28125 -42.070312 13.09375 -42.640625 12.9375 -43.046875 C 12.9375 -42.597656 13 -41.738281 13.125 -40.46875 C 13.25 -39.207031 13.3125 -38.25 13.3125 -37.59375 L 13.3125 -0.078125 L 5.0625 -0.078125 L 5.0625 -50.765625 C 5.0625 -50.816406 4.972656 -51.191406 4.796875 -51.890625 C 4.628906 -52.597656 4.457031 -53.332031 4.28125 -54.09375 C 4.101562 -54.851562 4.015625 -55.28125 4.015625 -55.375 L 18.53125 -55.375 L 30.34375 -23.609375 C 30.894531 -22.085938 31.625 -19.035156 32.53125 -14.453125 C 32.632812 -14.804688 32.898438 -16.078125 33.328125 -18.265625 C 33.753906 -20.460938 34.171875 -22.140625 34.578125 -23.296875 L 46.15625 -55.375 L 59.46875 -55.375 Z M 59.46875 -0.078125 "/></g></g></g><g fill="#183e9f" fill-opacity="1"><g transform="translate(72.984523, 332.841338)"><g><path d="M 35.25 -22.25 C 35.25 -19.21875 33.960938 -17.703125 31.390625 -17.703125 L 11.578125 -17.703125 C 11.578125 -14.472656 12.429688 -11.582031 14.140625 -9.03125 C 15.859375 -6.488281 18.253906 -5.21875 21.328125 -5.21875 C 22.898438 -5.21875 24.53125 -5.59375 26.21875 -6.34375 C 27.90625 -7.101562 29.328125 -8.066406 30.484375 -9.234375 L 34.34375 -3.171875 C 32.78125 -1.859375 30.722656 -0.863281 28.171875 -0.1875 C 25.628906 0.488281 23.195312 0.828125 20.875 0.828125 C 15.03125 0.828125 10.414062 -0.921875 7.03125 -4.421875 C 3.65625 -7.929688 1.96875 -12.632812 1.96875 -18.53125 C 1.96875 -24.132812 3.539062 -28.890625 6.6875 -32.796875 C 9.84375 -36.703125 14.144531 -38.65625 19.59375 -38.65625 C 24.539062 -38.65625 28.382812 -37.164062 31.125 -34.1875 C 33.875 -31.21875 35.25 -27.238281 35.25 -22.25 Z M 25.796875 -25.34375 C 25.796875 -27.414062 25.265625 -29.117188 24.203125 -30.453125 C 23.148438 -31.785156 21.640625 -32.453125 19.671875 -32.453125 C 17.648438 -32.453125 15.859375 -31.519531 14.296875 -29.65625 C 12.734375 -27.789062 11.898438 -25.800781 11.796875 -23.6875 L 24.515625 -23.6875 C 25.367188 -23.6875 25.796875 -24.238281 25.796875 -25.34375 Z M 25.796875 -25.34375 "/></g></g></g><g fill="#183e9f" fill-opacity="1"><g transform="translate(110.356869, 332.841338)"><g><path d="M 38.96875 -0.234375 L 29.8125 0.6875 C 29.40625 -0.425781 29.023438 -1.941406 28.671875 -3.859375 C 27.660156 -2.398438 26.160156 -1.238281 24.171875 -0.375 C 22.179688 0.476562 20.203125 0.90625 18.234375 0.90625 C 13.140625 0.90625 9.179688 -1.019531 6.359375 -4.875 C 3.535156 -8.738281 2.125 -13.289062 2.125 -18.53125 C 2.125 -24.28125 3.644531 -29.046875 6.6875 -32.828125 C 9.738281 -36.617188 14.066406 -38.515625 19.671875 -38.515625 C 23.304688 -38.515625 26.101562 -37.707031 28.0625 -36.09375 C 28.019531 -37.445312 28 -38.984375 28 -40.703125 L 28 -54.015625 L 26.859375 -58.109375 L 37.078125 -58.109375 L 37.078125 -10.75 C 37.078125 -6.050781 37.707031 -2.546875 38.96875 -0.234375 Z M 28 -9.765625 L 28 -22.09375 C 28 -24.96875 27.414062 -27.347656 26.25 -29.234375 C 25.09375 -31.128906 23.175781 -32.078125 20.5 -32.078125 C 18.4375 -32.078125 16.734375 -31.304688 15.390625 -29.765625 C 14.054688 -28.234375 13.160156 -26.546875 12.703125 -24.703125 C 12.253906 -22.859375 12.03125 -20.925781 12.03125 -18.90625 C 12.03125 -15.582031 12.734375 -12.570312 14.140625 -9.875 C 15.554688 -7.175781 17.78125 -5.828125 20.8125 -5.828125 C 22.164062 -5.828125 23.507812 -6.191406 24.84375 -6.921875 C 26.1875 -7.648438 27.238281 -8.597656 28 -9.765625 Z M 28 -9.765625 "/></g></g></g><g fill="#183e9f" fill-opacity="1"><g transform="translate(152.570978, 332.841338)"><g><path d="M 14 0 L 4.921875 0 L 4.921875 -33.515625 C 4.921875 -33.566406 4.859375 -33.894531 4.734375 -34.5 C 4.609375 -35.101562 4.46875 -35.757812 4.3125 -36.46875 C 4.15625 -37.175781 4.078125 -37.550781 4.078125 -37.59375 L 14 -37.59375 Z M 13.546875 -55.453125 C 14.703125 -54.296875 15.28125 -52.910156 15.28125 -51.296875 C 15.28125 -49.679688 14.710938 -48.304688 13.578125 -47.171875 C 12.441406 -46.035156 11.066406 -45.46875 9.453125 -45.46875 C 7.835938 -45.46875 6.460938 -46.035156 5.328125 -47.171875 C 4.191406 -48.304688 3.625 -49.679688 3.625 -51.296875 C 3.625 -52.910156 4.191406 -54.296875 5.328125 -55.453125 C 6.460938 -56.617188 7.835938 -57.203125 9.453125 -57.203125 C 11.066406 -57.203125 12.429688 -56.617188 13.546875 -55.453125 Z M 13.546875 -55.453125 "/></g></g></g><g fill="#183e9f" fill-opacity="1"><g transform="translate(171.55977, 332.841338)"><g><path d="M 89.578125 12.328125 C 84.585938 14.046875 81.054688 15.144531 78.984375 15.625 C 76.921875 16.101562 74.171875 16.34375 70.734375 16.34375 C 68.566406 16.34375 66.195312 16.0625 63.625 15.5 C 61.050781 14.945312 58.210938 14.09375 55.109375 12.9375 C 52.015625 11.78125 49.457031 10.769531 47.4375 9.90625 C 45.414062 9.050781 42.640625 7.816406 39.109375 6.203125 C 35.578125 4.585938 33.359375 3.578125 32.453125 3.171875 C 30.941406 2.515625 27.710938 1.660156 22.765625 0.609375 C 15.453125 -0.953125 10.066406 -4.253906 6.609375 -9.296875 C 3.160156 -14.347656 1.4375 -20.425781 1.4375 -27.53125 C 1.4375 -31.320312 1.988281 -34.914062 3.09375 -38.3125 C 4.207031 -41.71875 5.820312 -44.769531 7.9375 -47.46875 C 10.0625 -50.164062 12.835938 -52.304688 16.265625 -53.890625 C 19.691406 -55.484375 23.578125 -56.28125 27.921875 -56.28125 C 32.253906 -56.28125 36.132812 -55.484375 39.5625 -53.890625 C 43 -52.304688 45.773438 -50.164062 47.890625 -47.46875 C 50.003906 -44.769531 51.601562 -41.71875 52.6875 -38.3125 C 53.78125 -34.914062 54.328125 -31.320312 54.328125 -27.53125 C 54.328125 -22.238281 53.210938 -17.3125 50.984375 -12.75 C 48.765625 -8.1875 45.285156 -4.617188 40.546875 -2.046875 L 41.453125 -1.59375 C 45.546875 0.375 48.925781 1.960938 51.59375 3.171875 C 54.269531 4.390625 57.875 5.703125 62.40625 7.109375 C 66.945312 8.523438 70.757812 9.234375 73.84375 9.234375 C 77.269531 9.234375 81.9375 8.347656 87.84375 6.578125 Z M 43.203125 -27.53125 C 43.203125 -31.269531 42.722656 -34.6875 41.765625 -37.78125 C 40.804688 -40.882812 39.140625 -43.535156 36.765625 -45.734375 C 34.398438 -47.929688 31.453125 -49.03125 27.921875 -49.03125 C 24.441406 -49.03125 21.503906 -47.929688 19.109375 -45.734375 C 16.710938 -43.535156 15.035156 -40.875 14.078125 -37.75 C 13.117188 -34.625 12.640625 -31.195312 12.640625 -27.46875 C 12.640625 -23.78125 13.117188 -20.410156 14.078125 -17.359375 C 15.035156 -14.304688 16.710938 -11.722656 19.109375 -9.609375 C 21.503906 -7.492188 24.441406 -6.4375 27.921875 -6.4375 C 33.066406 -6.4375 36.898438 -8.488281 39.421875 -12.59375 C 41.941406 -16.707031 43.203125 -21.6875 43.203125 -27.53125 Z M 43.203125 -27.53125 "/></g></g></g><g fill="#183e9f" fill-opacity="1"><g transform="translate(227.315694, 332.841338)"><g><path d="M 49.171875 0 L 38.734375 0 L 38.734375 -24.734375 L 15.515625 -24.734375 L 15.515625 0 L 5.0625 0 L 5.0625 -50.765625 C 5.0625 -50.816406 4.972656 -51.191406 4.796875 -51.890625 C 4.628906 -52.597656 4.457031 -53.332031 4.28125 -54.09375 C 4.101562 -54.851562 4.015625 -55.28125 4.015625 -55.375 L 15.515625 -55.375 L 15.515625 -32.234375 L 38.734375 -32.234375 L 38.734375 -55.375 L 49.171875 -55.375 Z M 49.171875 0 "/></g></g></g><g fill="#183e9f" fill-opacity="1"><g transform="translate(281.331613, 332.841338)"><g><path d="M 43.421875 -1.4375 C 43.066406 -1.332031 42.179688 -1.066406 40.765625 -0.640625 C 39.359375 -0.210938 38.1875 0.0976562 37.25 0.296875 C 36.320312 0.503906 35.429688 0.609375 34.578125 0.609375 C 33.066406 0.609375 31.78125 0.144531 30.71875 -0.78125 C 29.65625 -1.71875 28.972656 -2.945312 28.671875 -4.46875 C 25.085938 -0.78125 20.953125 1.0625 16.265625 1.0625 C 12.128906 1.0625 9.21875 -0.0820312 7.53125 -2.375 C 5.84375 -4.675781 5 -7.945312 5 -12.1875 L 5 -33.515625 L 4.15625 -37.59375 L 14.21875 -37.59375 L 14.21875 -13.765625 C 14.21875 -8.722656 15.859375 -6.203125 19.140625 -6.203125 C 21.359375 -6.203125 23.25 -6.882812 24.8125 -8.25 C 26.375 -9.613281 27.15625 -11.378906 27.15625 -13.546875 L 27.15625 -33.515625 C 27.15625 -33.566406 27.078125 -33.894531 26.921875 -34.5 C 26.773438 -35.101562 26.625 -35.742188 26.46875 -36.421875 C 26.320312 -37.109375 26.25 -37.5 26.25 -37.59375 L 36.390625 -37.59375 L 36.390625 -9.984375 C 36.390625 -7.359375 37.019531 -6.046875 38.28125 -6.046875 C 38.382812 -6.046875 39.570312 -6.347656 41.84375 -6.953125 Z M 43.421875 -1.4375 "/></g></g></g><g fill="#183e9f" fill-opacity="1"><g transform="translate(323.167465, 332.841338)"><g><path d="M 40.09375 -18.984375 C 40.09375 -13.441406 38.488281 -8.738281 35.28125 -4.875 C 32.082031 -1.019531 27.757812 0.90625 22.3125 0.90625 C 17.675781 0.90625 13.945312 -0.832031 11.125 -4.3125 L 9.53125 0.078125 L 4.84375 0.078125 C 5.039062 -2.140625 5.140625 -3.804688 5.140625 -4.921875 L 5.140625 -53.9375 C 5.140625 -53.988281 4.972656 -54.65625 4.640625 -55.9375 C 4.316406 -57.226562 4.128906 -57.953125 4.078125 -58.109375 L 14.21875 -58.109375 L 14.21875 -39.796875 C 14.21875 -38.585938 14.191406 -37.4375 14.140625 -36.34375 C 14.097656 -35.257812 14.078125 -34.671875 14.078125 -34.578125 C 17.097656 -37.148438 20.648438 -38.4375 24.734375 -38.4375 C 27.960938 -38.4375 30.773438 -37.425781 33.171875 -35.40625 C 35.566406 -33.382812 37.316406 -30.925781 38.421875 -28.03125 C 39.535156 -25.132812 40.09375 -22.117188 40.09375 -18.984375 Z M 30.1875 -18.53125 C 30.1875 -20.445312 29.929688 -22.328125 29.421875 -24.171875 C 28.921875 -26.015625 27.988281 -27.691406 26.625 -29.203125 C 25.269531 -30.710938 23.609375 -31.46875 21.640625 -31.46875 C 18.867188 -31.46875 16.394531 -30.257812 14.21875 -27.84375 L 14.21875 -15.515625 C 14.21875 -12.640625 14.847656 -10.21875 16.109375 -8.25 C 17.367188 -6.28125 19.363281 -5.296875 22.09375 -5.296875 C 24.113281 -5.296875 25.765625 -6.085938 27.046875 -7.671875 C 28.328125 -9.265625 29.171875 -10.976562 29.578125 -12.8125 C 29.984375 -14.65625 30.1875 -16.5625 30.1875 -18.53125 Z M 30.1875 -18.53125 "/></g></g></g></svg>