<svg xmlns="http://www.w3.org/2000/svg" xmlns:xlink="http://www.w3.org/1999/xlink" width="600" zoomAndPan="magnify" viewBox="0 0 375 374.999991" height="600" preserveAspectRatio="xMidYMid meet" version="1.0"><defs><filter x="0%" y="0%" width="100%" height="100%" id="052d7923e3"><feColorMatrix values="0 0 0 0 1 0 0 0 0 1 0 0 0 0 1 0 0 0 1 0" color-interpolation-filters="sRGB"/></filter><g/><clipPath id="576e72c7bb"><path d="M 78.152344 221.921875 L 94.074219 221.921875 L 94.074219 235.871094 L 78.152344 235.871094 Z M 78.152344 221.921875 " clip-rule="nonzero"/></clipPath><clipPath id="7aebc87654"><path d="M 78.152344 226.039062 C 78.152344 230.46875 86.105469 235.871094 86.105469 235.871094 C 86.105469 235.871094 94.023438 230.429688 94.058594 226.039062 C 94.058594 223.769531 92.210938 221.921875 89.941406 221.921875 C 88.199219 221.921875 86.699219 223.039062 86.105469 224.570312 C 85.515625 223.039062 84.011719 221.921875 82.269531 221.921875 C 80 221.921875 78.152344 223.769531 78.152344 226.039062 " clip-rule="nonzero"/></clipPath><mask id="f1c00f00b2"><g filter="url(#052d7923e3)"><rect x="-37.5" width="450" fill="#000000" y="-37.499999" height="449.999989" fill-opacity="0.82"/></g></mask><clipPath id="9761970fdf"><path d="M 0.777344 0.769531 L 13.449219 0.769531 L 13.449219 11.871094 L 0.777344 11.871094 Z M 0.777344 0.769531 " clip-rule="nonzero"/></clipPath><clipPath id="f344b261c7"><path d="M 0.777344 4.046875 C 0.777344 7.570312 7.105469 11.871094 7.105469 11.871094 C 7.105469 11.871094 13.40625 7.542969 13.433594 4.046875 C 13.433594 2.238281 11.964844 0.769531 10.160156 0.769531 C 8.773438 0.769531 7.578125 1.65625 7.105469 2.878906 C 6.636719 1.65625 5.441406 0.769531 4.054688 0.769531 C 2.246094 0.769531 0.777344 2.238281 0.777344 4.046875 " clip-rule="nonzero"/></clipPath><clipPath id="36258f22ad"><rect x="0" width="14" y="0" height="12"/></clipPath><clipPath id="e8c54326f4"><path d="M 77.257812 226.304688 L 87.851562 226.304688 L 87.851562 237.851562 L 77.257812 237.851562 Z M 77.257812 226.304688 " clip-rule="nonzero"/></clipPath><clipPath id="4f131bb5ab"><path d="M 84 232 L 87.851562 232 L 87.851562 234 L 84 234 Z M 84 232 " clip-rule="nonzero"/></clipPath></defs><g clip-path="url(#576e72c7bb)"><g clip-path="url(#7aebc87654)"><path fill="#64ebb6" d="M 78.152344 221.921875 L 94.042969 221.921875 L 94.042969 235.871094 L 78.152344 235.871094 Z M 78.152344 221.921875 " fill-opacity="1" fill-rule="nonzero"/></g></g><g mask="url(#f1c00f00b2)"><g transform="matrix(1, 0, 0, 1, 79, 224)"><g clip-path="url(#36258f22ad)"><g clip-path="url(#9761970fdf)"><g clip-path="url(#f344b261c7)"><path fill="#1b9ce4" d="M 0.777344 0.769531 L 13.421875 0.769531 L 13.421875 11.871094 L 0.777344 11.871094 Z M 0.777344 0.769531 " fill-opacity="1" fill-rule="nonzero"/></g></g></g></g></g><g clip-path="url(#e8c54326f4)"><path fill="#ffffff" d="M 84.507812 236.738281 L 84.507812 234.171875 C 84.507812 233.832031 84.785156 233.554688 85.128906 233.554688 L 87.234375 233.554688 C 87.574219 233.554688 87.851562 233.277344 87.851562 232.9375 L 87.851562 230.421875 C 87.851562 230.082031 87.574219 229.804688 87.234375 229.804688 C 87.234375 229.804688 87 229.804688 86.6875 229.804688 C 86.375 229.804688 85.984375 229.804688 85.671875 229.804688 C 85.339844 229.75 84.871094 229.75 84.714844 229.59375 C 84.089844 228.65625 85.339844 226.316406 83.402344 226.398438 C 83.121094 226.394531 82.773438 226.394531 82.496094 226.394531 C 82.214844 226.394531 82.003906 226.394531 82.003906 226.394531 C 81.664062 226.394531 81.386719 226.671875 81.386719 227.011719 L 81.386719 229.1875 C 81.386719 229.355469 81.320312 229.511719 81.207031 229.625 C 81.09375 229.734375 80.941406 229.804688 80.769531 229.808594 C 79.722656 230.21875 77.222656 229.28125 77.503906 231.078125 C 77.503906 231.445312 77.503906 231.910156 77.503906 232.285156 C 77.503906 232.65625 77.503906 232.9375 77.503906 232.9375 C 77.503906 233.277344 77.78125 233.554688 78.121094 233.554688 C 78.121094 233.554688 79.296875 233.554688 80.082031 233.554688 C 80.28125 233.554688 80.449219 233.554688 80.574219 233.554688 C 80.8125 233.496094 81.125 233.652344 81.28125 233.808594 C 81.90625 235.054688 80.65625 237.867188 82.949219 237.355469 C 83.105469 237.355469 83.261719 237.355469 83.402344 237.355469 C 83.683594 237.355469 83.890625 237.355469 83.890625 237.355469 C 84.234375 237.355469 84.507812 237.078125 84.507812 236.738281 Z M 84.507812 236.738281 " fill-opacity="1" fill-rule="nonzero"/></g><g clip-path="url(#4f131bb5ab)"><path fill="#ffffff" d="M 87.28125 232.410156 C 87.328125 232.5625 87.304688 232.734375 87.207031 232.863281 C 87.105469 232.996094 86.941406 233.058594 86.785156 233.09375 C 86.59375 233.136719 86.398438 233.148438 86.203125 233.164062 C 85.984375 233.179688 85.769531 233.1875 85.550781 233.191406 C 85.304688 233.191406 85.054688 233.183594 84.808594 233.167969 C 84.710938 233.160156 84.710938 233.316406 84.808594 233.320312 C 85.277344 233.355469 85.753906 233.351562 86.222656 233.316406 C 86.433594 233.300781 86.648438 233.285156 86.855469 233.234375 C 87.035156 233.191406 87.210938 233.109375 87.328125 232.957031 C 87.453125 232.792969 87.492188 232.566406 87.425781 232.367188 C 87.398438 232.273438 87.25 232.316406 87.28125 232.410156 Z M 87.28125 232.410156 " fill-opacity="1" fill-rule="nonzero"/></g><path fill="#ffffff" d="M 86.359375 232.757812 C 85.960938 232.816406 85.558594 232.832031 85.15625 232.808594 C 85.058594 232.800781 85.058594 232.953125 85.15625 232.960938 C 85.574219 232.988281 85.988281 232.96875 86.402344 232.90625 C 86.441406 232.898438 86.464844 232.847656 86.453125 232.8125 C 86.441406 232.769531 86.402344 232.753906 86.359375 232.757812 Z M 86.359375 232.757812 " fill-opacity="1" fill-rule="nonzero"/><path fill="#ffffff" d="M 81.714844 228.265625 C 81.636719 228.707031 81.753906 229.160156 81.660156 229.597656 C 81.625 229.773438 81.554688 229.945312 81.425781 230.074219 C 81.28125 230.214844 81.085938 230.269531 80.894531 230.296875 C 80.636719 230.332031 80.371094 230.335938 80.109375 230.324219 C 80.011719 230.320312 80.011719 230.472656 80.109375 230.476562 C 80.359375 230.488281 80.609375 230.484375 80.859375 230.453125 C 81.070312 230.429688 81.285156 230.378906 81.457031 230.246094 C 81.789062 229.992188 81.855469 229.542969 81.851562 229.152344 C 81.84375 228.871094 81.8125 228.585938 81.863281 228.308594 C 81.878906 228.210938 81.730469 228.171875 81.714844 228.265625 Z M 81.714844 228.265625 " fill-opacity="1" fill-rule="nonzero"/><path fill="#ffffff" d="M 81.949219 229.996094 C 82.003906 230.296875 81.734375 230.53125 81.472656 230.613281 C 81.140625 230.714844 80.792969 230.660156 80.453125 230.679688 C 80.355469 230.6875 80.355469 230.839844 80.453125 230.835938 C 80.832031 230.8125 81.230469 230.878906 81.59375 230.734375 C 81.90625 230.605469 82.160156 230.308594 82.097656 229.953125 C 82.082031 229.859375 81.933594 229.898438 81.949219 229.996094 Z M 81.949219 229.996094 " fill-opacity="1" fill-rule="nonzero"/><g fill="#183e9f" fill-opacity="1"><g transform="translate(75.170483, 239.547981)"><g><path d="M 3.5 0 L 2.90625 0 L 2.90625 -2.21875 C 2.90625 -2.257812 2.910156 -2.363281 2.921875 -2.53125 C 2.910156 -2.507812 2.898438 -2.476562 2.890625 -2.4375 C 2.878906 -2.394531 2.863281 -2.351562 2.84375 -2.3125 C 2.832031 -2.28125 2.820312 -2.25 2.8125 -2.21875 L 2.015625 0 L 1.6875 0 L 0.875 -2.21875 C 0.851562 -2.25 0.835938 -2.28125 0.828125 -2.3125 C 0.816406 -2.351562 0.804688 -2.394531 0.796875 -2.4375 C 0.785156 -2.476562 0.773438 -2.507812 0.765625 -2.53125 C 0.765625 -2.507812 0.765625 -2.457031 0.765625 -2.375 C 0.773438 -2.300781 0.78125 -2.25 0.78125 -2.21875 L 0.78125 0 L 0.296875 0 L 0.296875 -2.984375 C 0.296875 -2.992188 0.289062 -3.019531 0.28125 -3.0625 C 0.269531 -3.101562 0.257812 -3.144531 0.25 -3.1875 C 0.238281 -3.226562 0.234375 -3.253906 0.234375 -3.265625 L 1.09375 -3.265625 L 1.78125 -1.390625 C 1.8125 -1.296875 1.859375 -1.113281 1.921875 -0.84375 C 1.921875 -0.863281 1.929688 -0.9375 1.953125 -1.0625 C 1.984375 -1.195312 2.007812 -1.300781 2.03125 -1.375 L 2.71875 -3.265625 L 3.5 -3.265625 Z M 3.5 0 "/></g></g></g><g fill="#183e9f" fill-opacity="1"><g transform="translate(78.901691, 239.547981)"><g><path d="M 2.078125 -1.3125 C 2.078125 -1.132812 2 -1.046875 1.84375 -1.046875 L 0.6875 -1.046875 C 0.6875 -0.847656 0.734375 -0.675781 0.828125 -0.53125 C 0.929688 -0.382812 1.070312 -0.3125 1.25 -0.3125 C 1.34375 -0.3125 1.4375 -0.332031 1.53125 -0.375 C 1.632812 -0.414062 1.722656 -0.472656 1.796875 -0.546875 L 2.015625 -0.1875 C 1.929688 -0.113281 1.8125 -0.0546875 1.65625 -0.015625 C 1.507812 0.0234375 1.367188 0.046875 1.234375 0.046875 C 0.890625 0.046875 0.613281 -0.0507812 0.40625 -0.25 C 0.207031 -0.457031 0.109375 -0.738281 0.109375 -1.09375 C 0.109375 -1.414062 0.203125 -1.691406 0.390625 -1.921875 C 0.578125 -2.160156 0.832031 -2.28125 1.15625 -2.28125 C 1.445312 -2.28125 1.671875 -2.191406 1.828125 -2.015625 C 1.992188 -1.835938 2.078125 -1.601562 2.078125 -1.3125 Z M 1.515625 -1.484375 C 1.515625 -1.609375 1.484375 -1.707031 1.421875 -1.78125 C 1.359375 -1.863281 1.269531 -1.90625 1.15625 -1.90625 C 1.039062 -1.90625 0.9375 -1.847656 0.84375 -1.734375 C 0.75 -1.628906 0.695312 -1.515625 0.6875 -1.390625 L 1.4375 -1.390625 C 1.488281 -1.390625 1.515625 -1.421875 1.515625 -1.484375 Z M 1.515625 -1.484375 "/></g></g></g><g fill="#183e9f" fill-opacity="1"><g transform="translate(81.101234, 239.547981)"><g><path d="M 2.296875 -0.015625 L 1.75 0.046875 C 1.726562 -0.0234375 1.707031 -0.117188 1.6875 -0.234375 C 1.625 -0.140625 1.535156 -0.0664062 1.421875 -0.015625 C 1.304688 0.0234375 1.191406 0.046875 1.078125 0.046875 C 0.773438 0.046875 0.539062 -0.0625 0.375 -0.28125 C 0.207031 -0.507812 0.125 -0.78125 0.125 -1.09375 C 0.125 -1.425781 0.210938 -1.703125 0.390625 -1.921875 C 0.566406 -2.148438 0.820312 -2.265625 1.15625 -2.265625 C 1.375 -2.265625 1.539062 -2.21875 1.65625 -2.125 C 1.644531 -2.207031 1.640625 -2.296875 1.640625 -2.390625 L 1.640625 -3.171875 L 1.578125 -3.421875 L 2.1875 -3.421875 L 2.1875 -0.625 C 2.1875 -0.351562 2.222656 -0.148438 2.296875 -0.015625 Z M 1.640625 -0.578125 L 1.640625 -1.296875 C 1.640625 -1.460938 1.601562 -1.601562 1.53125 -1.71875 C 1.46875 -1.832031 1.359375 -1.890625 1.203125 -1.890625 C 1.085938 -1.890625 0.988281 -1.84375 0.90625 -1.75 C 0.820312 -1.65625 0.765625 -1.554688 0.734375 -1.453125 C 0.710938 -1.347656 0.703125 -1.234375 0.703125 -1.109375 C 0.703125 -0.910156 0.742188 -0.734375 0.828125 -0.578125 C 0.910156 -0.421875 1.039062 -0.34375 1.21875 -0.34375 C 1.300781 -0.34375 1.378906 -0.363281 1.453125 -0.40625 C 1.535156 -0.445312 1.597656 -0.503906 1.640625 -0.578125 Z M 1.640625 -0.578125 "/></g></g></g><g fill="#183e9f" fill-opacity="1"><g transform="translate(83.585737, 239.547981)"><g><path d="M 0.828125 0 L 0.296875 0 L 0.296875 -1.96875 C 0.296875 -1.976562 0.289062 -2 0.28125 -2.03125 C 0.269531 -2.0625 0.257812 -2.097656 0.25 -2.140625 C 0.238281 -2.179688 0.234375 -2.207031 0.234375 -2.21875 L 0.828125 -2.21875 Z M 0.796875 -3.265625 C 0.867188 -3.191406 0.90625 -3.109375 0.90625 -3.015625 C 0.90625 -2.921875 0.867188 -2.835938 0.796875 -2.765625 C 0.734375 -2.703125 0.65625 -2.671875 0.5625 -2.671875 C 0.46875 -2.671875 0.382812 -2.703125 0.3125 -2.765625 C 0.25 -2.835938 0.21875 -2.921875 0.21875 -3.015625 C 0.21875 -3.109375 0.25 -3.1875 0.3125 -3.25 C 0.382812 -3.320312 0.46875 -3.359375 0.5625 -3.359375 C 0.65625 -3.359375 0.734375 -3.328125 0.796875 -3.265625 Z M 0.796875 -3.265625 "/></g></g></g><g fill="#183e9f" fill-opacity="1"><g transform="translate(84.703319, 239.547981)"><g><path d="M 5.265625 0.71875 C 4.972656 0.820312 4.765625 0.890625 4.640625 0.921875 C 4.523438 0.953125 4.363281 0.96875 4.15625 0.96875 C 4.03125 0.96875 3.890625 0.945312 3.734375 0.90625 C 3.585938 0.875 3.421875 0.820312 3.234375 0.75 C 3.054688 0.6875 2.90625 0.628906 2.78125 0.578125 C 2.664062 0.523438 2.503906 0.453125 2.296875 0.359375 C 2.085938 0.265625 1.957031 0.207031 1.90625 0.1875 C 1.820312 0.144531 1.632812 0.09375 1.34375 0.03125 C 0.90625 -0.0625 0.582031 -0.253906 0.375 -0.546875 C 0.175781 -0.847656 0.078125 -1.207031 0.078125 -1.625 C 0.078125 -1.84375 0.109375 -2.050781 0.171875 -2.25 C 0.242188 -2.457031 0.34375 -2.640625 0.46875 -2.796875 C 0.59375 -2.953125 0.753906 -3.078125 0.953125 -3.171875 C 1.160156 -3.265625 1.390625 -3.3125 1.640625 -3.3125 C 1.898438 -3.3125 2.128906 -3.265625 2.328125 -3.171875 C 2.523438 -3.078125 2.6875 -2.953125 2.8125 -2.796875 C 2.9375 -2.640625 3.03125 -2.457031 3.09375 -2.25 C 3.164062 -2.050781 3.203125 -1.84375 3.203125 -1.625 C 3.203125 -1.3125 3.132812 -1.019531 3 -0.75 C 2.875 -0.476562 2.671875 -0.269531 2.390625 -0.125 L 2.4375 -0.09375 C 2.675781 0.0195312 2.875 0.113281 3.03125 0.1875 C 3.1875 0.257812 3.398438 0.335938 3.671875 0.421875 C 3.941406 0.503906 4.164062 0.546875 4.34375 0.546875 C 4.550781 0.546875 4.828125 0.492188 5.171875 0.390625 Z M 2.546875 -1.625 C 2.546875 -1.84375 2.515625 -2.039062 2.453125 -2.21875 C 2.398438 -2.40625 2.300781 -2.5625 2.15625 -2.6875 C 2.019531 -2.820312 1.847656 -2.890625 1.640625 -2.890625 C 1.441406 -2.890625 1.269531 -2.820312 1.125 -2.6875 C 0.976562 -2.5625 0.878906 -2.40625 0.828125 -2.21875 C 0.773438 -2.039062 0.75 -1.835938 0.75 -1.609375 C 0.75 -1.398438 0.773438 -1.203125 0.828125 -1.015625 C 0.878906 -0.835938 0.976562 -0.6875 1.125 -0.5625 C 1.269531 -0.4375 1.441406 -0.375 1.640625 -0.375 C 1.941406 -0.375 2.164062 -0.492188 2.3125 -0.734375 C 2.46875 -0.984375 2.546875 -1.28125 2.546875 -1.625 Z M 2.546875 -1.625 "/></g></g></g><g fill="#183e9f" fill-opacity="1"><g transform="translate(87.984824, 239.547981)"><g><path d="M 2.890625 0 L 2.28125 0 L 2.28125 -1.453125 L 0.90625 -1.453125 L 0.90625 0 L 0.296875 0 L 0.296875 -2.984375 C 0.296875 -2.992188 0.289062 -3.019531 0.28125 -3.0625 C 0.269531 -3.101562 0.257812 -3.144531 0.25 -3.1875 C 0.238281 -3.226562 0.234375 -3.253906 0.234375 -3.265625 L 0.90625 -3.265625 L 0.90625 -1.890625 L 2.28125 -1.890625 L 2.28125 -3.265625 L 2.890625 -3.265625 Z M 2.890625 0 "/></g></g></g><g fill="#183e9f" fill-opacity="1"><g transform="translate(91.163921, 239.547981)"><g><path d="M 2.5625 -0.078125 C 2.539062 -0.078125 2.488281 -0.0625 2.40625 -0.03125 C 2.320312 -0.0078125 2.25 0.00390625 2.1875 0.015625 C 2.132812 0.0234375 2.082031 0.03125 2.03125 0.03125 C 1.945312 0.03125 1.875 0.00390625 1.8125 -0.046875 C 1.75 -0.0976562 1.707031 -0.171875 1.6875 -0.265625 C 1.476562 -0.046875 1.234375 0.0625 0.953125 0.0625 C 0.710938 0.0625 0.539062 -0.00390625 0.4375 -0.140625 C 0.34375 -0.273438 0.296875 -0.46875 0.296875 -0.71875 L 0.296875 -1.96875 L 0.25 -2.21875 L 0.84375 -2.21875 L 0.84375 -0.8125 C 0.84375 -0.507812 0.9375 -0.359375 1.125 -0.359375 C 1.257812 -0.359375 1.367188 -0.398438 1.453125 -0.484375 C 1.546875 -0.566406 1.59375 -0.671875 1.59375 -0.796875 L 1.59375 -1.96875 C 1.59375 -1.976562 1.585938 -2 1.578125 -2.03125 C 1.578125 -2.0625 1.570312 -2.097656 1.5625 -2.140625 C 1.550781 -2.179688 1.546875 -2.207031 1.546875 -2.21875 L 2.140625 -2.21875 L 2.140625 -0.59375 C 2.140625 -0.4375 2.175781 -0.359375 2.25 -0.359375 C 2.257812 -0.359375 2.332031 -0.375 2.46875 -0.40625 Z M 2.5625 -0.078125 "/></g></g></g><g fill="#183e9f" fill-opacity="1"><g transform="translate(93.626162, 239.547981)"><g><path d="M 2.359375 -1.125 C 2.359375 -0.789062 2.265625 -0.507812 2.078125 -0.28125 C 1.890625 -0.0625 1.632812 0.046875 1.3125 0.046875 C 1.039062 0.046875 0.820312 -0.0507812 0.65625 -0.25 L 0.5625 0 L 0.28125 0 C 0.289062 -0.125 0.296875 -0.222656 0.296875 -0.296875 L 0.296875 -3.171875 C 0.296875 -3.171875 0.285156 -3.207031 0.265625 -3.28125 C 0.253906 -3.363281 0.242188 -3.410156 0.234375 -3.421875 L 0.84375 -3.421875 L 0.84375 -2.34375 C 0.84375 -2.269531 0.835938 -2.203125 0.828125 -2.140625 C 0.828125 -2.078125 0.828125 -2.039062 0.828125 -2.03125 C 1.003906 -2.1875 1.210938 -2.265625 1.453125 -2.265625 C 1.640625 -2.265625 1.804688 -2.203125 1.953125 -2.078125 C 2.097656 -1.960938 2.203125 -1.816406 2.265625 -1.640625 C 2.328125 -1.472656 2.359375 -1.300781 2.359375 -1.125 Z M 1.78125 -1.09375 C 1.78125 -1.207031 1.765625 -1.316406 1.734375 -1.421875 C 1.703125 -1.523438 1.644531 -1.625 1.5625 -1.71875 C 1.488281 -1.8125 1.394531 -1.859375 1.28125 -1.859375 C 1.113281 -1.859375 0.96875 -1.785156 0.84375 -1.640625 L 0.84375 -0.90625 C 0.84375 -0.738281 0.878906 -0.597656 0.953125 -0.484375 C 1.023438 -0.367188 1.140625 -0.3125 1.296875 -0.3125 C 1.421875 -0.3125 1.519531 -0.359375 1.59375 -0.453125 C 1.664062 -0.546875 1.710938 -0.644531 1.734375 -0.75 C 1.765625 -0.863281 1.78125 -0.976562 1.78125 -1.09375 Z M 1.78125 -1.09375 "/></g></g></g></svg>